<?xml version="1.0" encoding="UTF-8" standalone="no"?>
<!DOCTYPE svg PUBLIC "-//W3C//DTD SVG 1.1//EN"
 "http://www.w3.org/Graphics/SVG/1.1/DTD/svg11.dtd">
<!-- Generated by graphviz version 2.47.0 (20210316.0004)
 -->
<!-- Title: dependencies Pages: 1 -->
<svg width="616pt" height="211pt"
 viewBox="0.00 0.00 616.00 211.00" xmlns="http://www.w3.org/2000/svg" xmlns:xlink="http://www.w3.org/1999/xlink">
<g id="graph0" class="graph" transform="scale(1 1) rotate(0) translate(4 207)">
<title>dependencies</title>
<polygon fill="white" stroke="transparent" points="-4,4 -4,-207 612,-207 612,4 -4,4"/>
<text text-anchor="start" x="283.01" y="-42.4" font-family="Times-12" font-weight="bold" font-size="14.00">Legend</text>
<polygon fill="#ffffb3" stroke="transparent" points="70,-10 70,-30 90,-30 90,-10 70,-10"/>
<text text-anchor="start" x="93.63" y="-15.4" font-family="Times-12" font-size="14.00"> &#160;Declarations</text>
<polygon fill="#8dd3c7" stroke="transparent" points="183,-10 183,-30 203,-30 203,-10 183,-10"/>
<text text-anchor="start" x="206.73" y="-15.4" font-family="Times-12" font-size="14.00"> &#160;Module</text>
<polygon fill="#80b1d3" stroke="transparent" points="269,-10 269,-30 289,-30 289,-10 269,-10"/>
<text text-anchor="start" x="292.78" y="-15.4" font-family="Times-12" font-size="14.00"> &#160;Bootstrap</text>
<polygon fill="#fdb462" stroke="transparent" points="366,-10 366,-30 386,-30 386,-10 366,-10"/>
<text text-anchor="start" x="389.67" y="-15.4" font-family="Times-12" font-size="14.00"> &#160;Providers</text>
<polygon fill="#fb8072" stroke="transparent" points="462,-10 462,-30 482,-30 482,-10 462,-10"/>
<text text-anchor="start" x="485.73" y="-15.4" font-family="Times-12" font-size="14.00"> &#160;Exports</text>
<g id="clust1" class="cluster">
<title>cluster_UserModule</title>
<polygon fill="none" stroke="black" stroke-dasharray="1,5" points="8,-70 8,-195 600,-195 600,-70 8,-70"/>
</g>
<g id="clust2" class="cluster">
<title>cluster_UserModule_declarations</title>
<polygon fill="none" stroke="black" points="144,-78 144,-130 592,-130 592,-78 144,-78"/>
</g>
<g id="clust6" class="cluster">
<title>cluster_UserModule_imports</title>
<polygon fill="none" stroke="black" points="16,-78 16,-130 136,-130 136,-78 16,-78"/>
</g>
<!-- ChatComponent -->
<g id="node1" class="node">
<title>ChatComponent</title>
<polygon fill="#ffffb3" stroke="black" points="583.77,-122 476.23,-122 476.23,-86 583.77,-86 583.77,-122"/>
<text text-anchor="middle" x="530" y="-99.8" font-family="Times,serif" font-size="14.00">ChatComponent</text>
</g>
<!-- UserModule -->
<g id="node4" class="node">
<title>UserModule</title>
<polygon fill="#8dd3c7" stroke="black" points="359.98,-187 356.98,-191 335.98,-191 332.98,-187 274.02,-187 274.02,-151 359.98,-151 359.98,-187"/>
<text text-anchor="middle" x="317" y="-164.8" font-family="Times,serif" font-size="14.00">UserModule</text>
</g>
<!-- ChatComponent&#45;&gt;UserModule -->
<g id="edge1" class="edge">
<title>ChatComponent&#45;&gt;UserModule</title>
<path fill="none" stroke="black" d="M530,-122.11C530,-141.34 530,-169 530,-169 530,-169 370.1,-169 370.1,-169"/>
<polygon fill="black" stroke="black" points="370.1,-165.5 360.1,-169 370.1,-172.5 370.1,-165.5"/>
</g>
<!-- ProfileComponent -->
<g id="node2" class="node">
<title>ProfileComponent</title>
<polygon fill="#ffffb3" stroke="black" points="457.93,-122 338.07,-122 338.07,-86 457.93,-86 457.93,-122"/>
<text text-anchor="middle" x="398" y="-99.8" font-family="Times,serif" font-size="14.00">ProfileComponent</text>
</g>
<!-- ProfileComponent&#45;&gt;UserModule -->
<g id="edge2" class="edge">
<title>ProfileComponent&#45;&gt;UserModule</title>
<path fill="none" stroke="black" d="M349.14,-122.11C349.14,-122.11 349.14,-140.99 349.14,-140.99"/>
<polygon fill="black" stroke="black" points="345.64,-140.99 349.14,-150.99 352.64,-140.99 345.64,-140.99"/>
</g>
<!-- UserDashboardComponent -->
<g id="node3" class="node">
<title>UserDashboardComponent</title>
<polygon fill="#ffffb3" stroke="black" points="320.4,-122 151.6,-122 151.6,-86 320.4,-86 320.4,-122"/>
<text text-anchor="middle" x="236" y="-99.8" font-family="Times,serif" font-size="14.00">UserDashboardComponent</text>
</g>
<!-- UserDashboardComponent&#45;&gt;UserModule -->
<g id="edge3" class="edge">
<title>UserDashboardComponent&#45;&gt;UserModule</title>
<path fill="none" stroke="black" d="M297.11,-122.11C297.11,-122.11 297.11,-140.99 297.11,-140.99"/>
<polygon fill="black" stroke="black" points="293.61,-140.99 297.11,-150.99 300.61,-140.99 293.61,-140.99"/>
</g>
<!-- CustomModule -->
<g id="node5" class="node">
<title>CustomModule</title>
<polygon fill="#8dd3c7" stroke="black" points="127.61,-122 124.61,-126 103.61,-126 100.61,-122 24.39,-122 24.39,-86 127.61,-86 127.61,-122"/>
<text text-anchor="middle" x="76" y="-99.8" font-family="Times,serif" font-size="14.00">CustomModule</text>
</g>
<!-- CustomModule&#45;&gt;UserModule -->
<g id="edge4" class="edge">
<title>CustomModule&#45;&gt;UserModule</title>
<path fill="none" stroke="black" d="M76,-122.11C76,-141.34 76,-169 76,-169 76,-169 263.91,-169 263.91,-169"/>
<polygon fill="black" stroke="black" points="263.91,-172.5 273.91,-169 263.91,-165.5 263.91,-172.5"/>
</g>
</g>
</svg>
