<?xml version="1.0" encoding="UTF-8" standalone="no"?>
<!DOCTYPE svg PUBLIC "-//W3C//DTD SVG 1.1//EN"
 "http://www.w3.org/Graphics/SVG/1.1/DTD/svg11.dtd">
<!-- Generated by graphviz version 2.47.0 (20210316.0004)
 -->
<!-- Title: dependencies Pages: 1 -->
<svg width="504pt" height="284pt"
 viewBox="0.00 0.00 504.00 284.00" xmlns="http://www.w3.org/2000/svg" xmlns:xlink="http://www.w3.org/1999/xlink">
<g id="graph0" class="graph" transform="scale(1 1) rotate(0) translate(4 280)">
<title>dependencies</title>
<polygon fill="white" stroke="transparent" points="-4,4 -4,-280 500,-280 500,4 -4,4"/>
<text text-anchor="start" x="227.01" y="-42.4" font-family="Times-12" font-weight="bold" font-size="14.00">Legend</text>
<polygon fill="#ffffb3" stroke="transparent" points="14,-10 14,-30 34,-30 34,-10 14,-10"/>
<text text-anchor="start" x="37.63" y="-15.4" font-family="Times-12" font-size="14.00"> &#160;Declarations</text>
<polygon fill="#8dd3c7" stroke="transparent" points="127,-10 127,-30 147,-30 147,-10 127,-10"/>
<text text-anchor="start" x="150.73" y="-15.4" font-family="Times-12" font-size="14.00"> &#160;Module</text>
<polygon fill="#80b1d3" stroke="transparent" points="213,-10 213,-30 233,-30 233,-10 213,-10"/>
<text text-anchor="start" x="236.78" y="-15.4" font-family="Times-12" font-size="14.00"> &#160;Bootstrap</text>
<polygon fill="#fdb462" stroke="transparent" points="310,-10 310,-30 330,-30 330,-10 310,-10"/>
<text text-anchor="start" x="333.67" y="-15.4" font-family="Times-12" font-size="14.00"> &#160;Providers</text>
<polygon fill="#fb8072" stroke="transparent" points="406,-10 406,-30 426,-30 426,-10 406,-10"/>
<text text-anchor="start" x="429.73" y="-15.4" font-family="Times-12" font-size="14.00"> &#160;Exports</text>
<g id="clust1" class="cluster">
<title>cluster_AuthenticationModule</title>
<polygon fill="none" stroke="black" stroke-dasharray="1,5" points="102,-70 102,-268 394,-268 394,-70 102,-70"/>
</g>
<g id="clust2" class="cluster">
<title>cluster_AuthenticationModule_declarations</title>
<polygon fill="none" stroke="black" points="113,-78 113,-130 383,-130 383,-78 113,-78"/>
</g>
<g id="clust6" class="cluster">
<title>cluster_AuthenticationModule_exports</title>
<polygon fill="none" stroke="black" points="110,-208 110,-260 386,-260 386,-208 110,-208"/>
</g>
<!-- LoginComponent -->
<g id="node1" class="node">
<title>LoginComponent</title>
<polygon fill="#ffffb3" stroke="black" points="375.28,-122 260.72,-122 260.72,-86 375.28,-86 375.28,-122"/>
<text text-anchor="middle" x="318" y="-99.8" font-family="Times,serif" font-size="14.00">LoginComponent</text>
</g>
<!-- AuthenticationModule -->
<g id="node3" class="node">
<title>AuthenticationModule</title>
<polygon fill="#8dd3c7" stroke="black" points="319.25,-187 316.25,-191 295.25,-191 292.25,-187 176.75,-187 176.75,-151 319.25,-151 319.25,-187"/>
<text text-anchor="middle" x="248" y="-164.8" font-family="Times,serif" font-size="14.00">AuthenticationModule</text>
</g>
<!-- LoginComponent&#45;&gt;AuthenticationModule -->
<g id="edge1" class="edge">
<title>LoginComponent&#45;&gt;AuthenticationModule</title>
<path fill="none" stroke="black" d="M289.99,-122.11C289.99,-122.11 289.99,-140.99 289.99,-140.99"/>
<polygon fill="black" stroke="black" points="286.49,-140.99 289.99,-150.99 293.49,-140.99 286.49,-140.99"/>
</g>
<!-- SignupComponent -->
<g id="node2" class="node">
<title>SignupComponent</title>
<polygon fill="#ffffb3" stroke="black" points="242.51,-122 121.49,-122 121.49,-86 242.51,-86 242.51,-122"/>
<text text-anchor="middle" x="182" y="-99.8" font-family="Times,serif" font-size="14.00">SignupComponent</text>
</g>
<!-- SignupComponent&#45;&gt;AuthenticationModule -->
<g id="edge2" class="edge">
<title>SignupComponent&#45;&gt;AuthenticationModule</title>
<path fill="none" stroke="black" d="M209.56,-122.11C209.56,-122.11 209.56,-140.99 209.56,-140.99"/>
<polygon fill="black" stroke="black" points="206.06,-140.99 209.56,-150.99 213.06,-140.99 206.06,-140.99"/>
</g>
<!-- LoginComponent  -->
<g id="node4" class="node">
<title>LoginComponent </title>
<polygon fill="#fb8072" stroke="black" points="378.28,-252 259.72,-252 259.72,-216 378.28,-216 378.28,-252"/>
<text text-anchor="middle" x="319" y="-229.8" font-family="Times,serif" font-size="14.00">LoginComponent </text>
</g>
<!-- AuthenticationModule&#45;&gt;LoginComponent  -->
<g id="edge3" class="edge">
<title>AuthenticationModule&#45;&gt;LoginComponent </title>
<path fill="none" stroke="black" stroke-dasharray="5,2" d="M289.62,-187.11C289.62,-187.11 289.62,-205.99 289.62,-205.99"/>
<polygon fill="black" stroke="black" points="286.12,-205.99 289.62,-215.99 293.12,-205.99 286.12,-205.99"/>
</g>
<!-- SignupComponent  -->
<g id="node5" class="node">
<title>SignupComponent </title>
<polygon fill="#fb8072" stroke="black" points="242.01,-252 117.99,-252 117.99,-216 242.01,-216 242.01,-252"/>
<text text-anchor="middle" x="180" y="-229.8" font-family="Times,serif" font-size="14.00">SignupComponent </text>
</g>
<!-- AuthenticationModule&#45;&gt;SignupComponent  -->
<g id="edge4" class="edge">
<title>AuthenticationModule&#45;&gt;SignupComponent </title>
<path fill="none" stroke="black" stroke-dasharray="5,2" d="M209.44,-187.11C209.44,-187.11 209.44,-205.99 209.44,-205.99"/>
<polygon fill="black" stroke="black" points="205.94,-205.99 209.44,-215.99 212.94,-205.99 205.94,-205.99"/>
</g>
</g>
</svg>
