<?xml version="1.0" encoding="UTF-8" standalone="no"?>
<!DOCTYPE svg PUBLIC "-//W3C//DTD SVG 1.1//EN"
 "http://www.w3.org/Graphics/SVG/1.1/DTD/svg11.dtd">
<!-- Generated by graphviz version 2.47.0 (20210316.0004)
 -->
<!-- Title: dependencies Pages: 1 -->
<svg width="606pt" height="211pt"
 viewBox="0.00 0.00 606.00 211.00" xmlns="http://www.w3.org/2000/svg" xmlns:xlink="http://www.w3.org/1999/xlink">
<g id="graph0" class="graph" transform="scale(1 1) rotate(0) translate(4 207)">
<title>dependencies</title>
<polygon fill="white" stroke="transparent" points="-4,4 -4,-207 602,-207 602,4 -4,4"/>
<text text-anchor="start" x="278.01" y="-42.4" font-family="Times-12" font-weight="bold" font-size="14.00">Legend</text>
<polygon fill="#ffffb3" stroke="transparent" points="65,-10 65,-30 85,-30 85,-10 65,-10"/>
<text text-anchor="start" x="88.63" y="-15.4" font-family="Times-12" font-size="14.00"> &#160;Declarations</text>
<polygon fill="#8dd3c7" stroke="transparent" points="178,-10 178,-30 198,-30 198,-10 178,-10"/>
<text text-anchor="start" x="201.73" y="-15.4" font-family="Times-12" font-size="14.00"> &#160;Module</text>
<polygon fill="#80b1d3" stroke="transparent" points="264,-10 264,-30 284,-30 284,-10 264,-10"/>
<text text-anchor="start" x="287.78" y="-15.4" font-family="Times-12" font-size="14.00"> &#160;Bootstrap</text>
<polygon fill="#fdb462" stroke="transparent" points="361,-10 361,-30 381,-30 381,-10 361,-10"/>
<text text-anchor="start" x="384.67" y="-15.4" font-family="Times-12" font-size="14.00"> &#160;Providers</text>
<polygon fill="#fb8072" stroke="transparent" points="457,-10 457,-30 477,-30 477,-10 457,-10"/>
<text text-anchor="start" x="480.73" y="-15.4" font-family="Times-12" font-size="14.00"> &#160;Exports</text>
<g id="clust1" class="cluster">
<title>cluster_AdminModule</title>
<polygon fill="none" stroke="black" stroke-dasharray="1,5" points="8,-70 8,-195 590,-195 590,-70 8,-70"/>
</g>
<g id="clust7" class="cluster">
<title>cluster_AdminModule_providers</title>
<polygon fill="none" stroke="black" points="348,-78 348,-130 582,-130 582,-78 348,-78"/>
</g>
<g id="clust2" class="cluster">
<title>cluster_AdminModule_declarations</title>
<polygon fill="none" stroke="black" points="144,-78 144,-130 340,-130 340,-78 144,-78"/>
</g>
<g id="clust4" class="cluster">
<title>cluster_AdminModule_imports</title>
<polygon fill="none" stroke="black" points="16,-78 16,-130 136,-130 136,-78 16,-78"/>
</g>
<!-- AdminDashboardComponent -->
<g id="node1" class="node">
<title>AdminDashboardComponent</title>
<polygon fill="#ffffb3" stroke="black" points="332.36,-122 151.64,-122 151.64,-86 332.36,-86 332.36,-122"/>
<text text-anchor="middle" x="242" y="-99.8" font-family="Times,serif" font-size="14.00">AdminDashboardComponent</text>
</g>
<!-- AdminModule -->
<g id="node2" class="node">
<title>AdminModule</title>
<polygon fill="#8dd3c7" stroke="black" points="291.44,-187 288.44,-191 267.44,-191 264.44,-187 192.56,-187 192.56,-151 291.44,-151 291.44,-187"/>
<text text-anchor="middle" x="242" y="-164.8" font-family="Times,serif" font-size="14.00">AdminModule</text>
</g>
<!-- AdminDashboardComponent&#45;&gt;AdminModule -->
<g id="edge1" class="edge">
<title>AdminDashboardComponent&#45;&gt;AdminModule</title>
<path fill="none" stroke="black" d="M242,-122.11C242,-122.11 242,-140.99 242,-140.99"/>
<polygon fill="black" stroke="black" points="238.5,-140.99 242,-150.99 245.5,-140.99 238.5,-140.99"/>
</g>
<!-- CustomModule -->
<g id="node3" class="node">
<title>CustomModule</title>
<polygon fill="#8dd3c7" stroke="black" points="127.61,-122 124.61,-126 103.61,-126 100.61,-122 24.39,-122 24.39,-86 127.61,-86 127.61,-122"/>
<text text-anchor="middle" x="76" y="-99.8" font-family="Times,serif" font-size="14.00">CustomModule</text>
</g>
<!-- CustomModule&#45;&gt;AdminModule -->
<g id="edge2" class="edge">
<title>CustomModule&#45;&gt;AdminModule</title>
<path fill="none" stroke="black" d="M76,-122.11C76,-141.34 76,-169 76,-169 76,-169 182.64,-169 182.64,-169"/>
<polygon fill="black" stroke="black" points="182.64,-172.5 192.64,-169 182.64,-165.5 182.64,-172.5"/>
</g>
<!-- AdminDashboardService -->
<g id="node4" class="node">
<title>AdminDashboardService</title>
<ellipse fill="#fdb462" stroke="black" cx="465" cy="-104" rx="108.79" ry="18"/>
<text text-anchor="middle" x="465" y="-99.8" font-family="Times,serif" font-size="14.00">AdminDashboardService</text>
</g>
<!-- AdminDashboardService&#45;&gt;AdminModule -->
<g id="edge3" class="edge">
<title>AdminDashboardService&#45;&gt;AdminModule</title>
<path fill="none" stroke="black" d="M465,-122.11C465,-141.34 465,-169 465,-169 465,-169 301.49,-169 301.49,-169"/>
<polygon fill="black" stroke="black" points="301.49,-165.5 291.49,-169 301.49,-172.5 301.49,-165.5"/>
</g>
</g>
</svg>
