<?xml version="1.0" encoding="UTF-8" standalone="no"?>
<!DOCTYPE svg PUBLIC "-//W3C//DTD SVG 1.1//EN"
 "http://www.w3.org/Graphics/SVG/1.1/DTD/svg11.dtd">
<!-- Generated by graphviz version 2.47.0 (20210316.0004)
 -->
<!-- Title: dependencies Pages: 1 -->
<svg width="898pt" height="284pt"
 viewBox="0.00 0.00 898.00 284.00" xmlns="http://www.w3.org/2000/svg" xmlns:xlink="http://www.w3.org/1999/xlink">
<g id="graph0" class="graph" transform="scale(1 1) rotate(0) translate(4 280)">
<title>dependencies</title>
<polygon fill="white" stroke="transparent" points="-4,4 -4,-280 894,-280 894,4 -4,4"/>
<text text-anchor="start" x="424.01" y="-42.4" font-family="Times-12" font-weight="bold" font-size="14.00">Legend</text>
<polygon fill="#ffffb3" stroke="transparent" points="211,-10 211,-30 231,-30 231,-10 211,-10"/>
<text text-anchor="start" x="234.63" y="-15.4" font-family="Times-12" font-size="14.00"> &#160;Declarations</text>
<polygon fill="#8dd3c7" stroke="transparent" points="324,-10 324,-30 344,-30 344,-10 324,-10"/>
<text text-anchor="start" x="347.73" y="-15.4" font-family="Times-12" font-size="14.00"> &#160;Module</text>
<polygon fill="#80b1d3" stroke="transparent" points="410,-10 410,-30 430,-30 430,-10 410,-10"/>
<text text-anchor="start" x="433.78" y="-15.4" font-family="Times-12" font-size="14.00"> &#160;Bootstrap</text>
<polygon fill="#fdb462" stroke="transparent" points="507,-10 507,-30 527,-30 527,-10 507,-10"/>
<text text-anchor="start" x="530.67" y="-15.4" font-family="Times-12" font-size="14.00"> &#160;Providers</text>
<polygon fill="#fb8072" stroke="transparent" points="603,-10 603,-30 623,-30 623,-10 603,-10"/>
<text text-anchor="start" x="626.73" y="-15.4" font-family="Times-12" font-size="14.00"> &#160;Exports</text>
<g id="clust1" class="cluster">
<title>cluster_CustomModule</title>
<polygon fill="none" stroke="black" stroke-dasharray="1,5" points="8,-70 8,-268 882,-268 882,-70 8,-70"/>
</g>
<g id="clust10" class="cluster">
<title>cluster_CustomModule_exports</title>
<polygon fill="none" stroke="black" points="115,-208 115,-260 819,-260 819,-208 115,-208"/>
</g>
<g id="clust2" class="cluster">
<title>cluster_CustomModule_declarations</title>
<polygon fill="none" stroke="black" points="16,-78 16,-130 874,-130 874,-78 16,-78"/>
</g>
<!-- ChatBoxComponent -->
<g id="node1" class="node">
<title>ChatBoxComponent</title>
<polygon fill="#ffffb3" stroke="black" points="865.61,-122 734.39,-122 734.39,-86 865.61,-86 865.61,-122"/>
<text text-anchor="middle" x="800" y="-99.8" font-family="Times,serif" font-size="14.00">ChatBoxComponent</text>
</g>
<!-- CustomModule -->
<g id="node7" class="node">
<title>CustomModule</title>
<polygon fill="#8dd3c7" stroke="black" points="492.61,-187 489.61,-191 468.61,-191 465.61,-187 389.39,-187 389.39,-151 492.61,-151 492.61,-187"/>
<text text-anchor="middle" x="441" y="-164.8" font-family="Times,serif" font-size="14.00">CustomModule</text>
</g>
<!-- ChatBoxComponent&#45;&gt;CustomModule -->
<g id="edge1" class="edge">
<title>ChatBoxComponent&#45;&gt;CustomModule</title>
<path fill="none" stroke="black" d="M772.88,-122.11C772.88,-141.34 772.88,-169 772.88,-169 772.88,-169 502.86,-169 502.86,-169"/>
<polygon fill="black" stroke="black" points="502.86,-165.5 492.86,-169 502.86,-172.5 502.86,-165.5"/>
</g>
<!-- ChatUserListComponent -->
<g id="node2" class="node">
<title>ChatUserListComponent</title>
<polygon fill="#ffffb3" stroke="black" points="715.98,-122 560.02,-122 560.02,-86 715.98,-86 715.98,-122"/>
<text text-anchor="middle" x="638" y="-99.8" font-family="Times,serif" font-size="14.00">ChatUserListComponent</text>
</g>
<!-- ChatUserListComponent&#45;&gt;CustomModule -->
<g id="edge2" class="edge">
<title>ChatUserListComponent&#45;&gt;CustomModule</title>
<path fill="none" stroke="black" d="M609.38,-122.03C609.38,-138.4 609.38,-160 609.38,-160 609.38,-160 502.89,-160 502.89,-160"/>
<polygon fill="black" stroke="black" points="502.89,-156.5 492.89,-160 502.89,-163.5 502.89,-156.5"/>
</g>
<!-- LogoutBtn -->
<g id="node3" class="node">
<title>LogoutBtn</title>
<polygon fill="#ffffb3" stroke="black" points="542.17,-122 465.83,-122 465.83,-86 542.17,-86 542.17,-122"/>
<text text-anchor="middle" x="504" y="-99.8" font-family="Times,serif" font-size="14.00">LogoutBtn</text>
</g>
<!-- LogoutBtn&#45;&gt;CustomModule -->
<g id="edge3" class="edge">
<title>LogoutBtn&#45;&gt;CustomModule</title>
<path fill="none" stroke="black" d="M479.11,-122.11C479.11,-122.11 479.11,-140.99 479.11,-140.99"/>
<polygon fill="black" stroke="black" points="475.61,-140.99 479.11,-150.99 482.61,-140.99 475.61,-140.99"/>
</g>
<!-- NavbarComponent -->
<g id="node4" class="node">
<title>NavbarComponent</title>
<polygon fill="#ffffb3" stroke="black" points="447.03,-122 324.97,-122 324.97,-86 447.03,-86 447.03,-122"/>
<text text-anchor="middle" x="386" y="-99.8" font-family="Times,serif" font-size="14.00">NavbarComponent</text>
</g>
<!-- NavbarComponent&#45;&gt;CustomModule -->
<g id="edge4" class="edge">
<title>NavbarComponent&#45;&gt;CustomModule</title>
<path fill="none" stroke="black" d="M418.35,-122.11C418.35,-122.11 418.35,-140.99 418.35,-140.99"/>
<polygon fill="black" stroke="black" points="414.85,-140.99 418.35,-150.99 421.85,-140.99 414.85,-140.99"/>
</g>
<!-- TableComponent -->
<g id="node5" class="node">
<title>TableComponent</title>
<polygon fill="#ffffb3" stroke="black" points="306.7,-122 193.3,-122 193.3,-86 306.7,-86 306.7,-122"/>
<text text-anchor="middle" x="250" y="-99.8" font-family="Times,serif" font-size="14.00">TableComponent</text>
</g>
<!-- TableComponent&#45;&gt;CustomModule -->
<g id="edge5" class="edge">
<title>TableComponent&#45;&gt;CustomModule</title>
<path fill="none" stroke="black" d="M281.79,-122.03C281.79,-138.4 281.79,-160 281.79,-160 281.79,-160 379.31,-160 379.31,-160"/>
<polygon fill="black" stroke="black" points="379.31,-163.5 389.31,-160 379.31,-156.5 379.31,-163.5"/>
</g>
<!-- TimeStampConvertPipe -->
<g id="node6" class="node">
<title>TimeStampConvertPipe</title>
<polygon fill="#ffffb3" stroke="black" points="175.82,-122 24.18,-122 24.18,-86 175.82,-86 175.82,-122"/>
<text text-anchor="middle" x="100" y="-99.8" font-family="Times,serif" font-size="14.00">TimeStampConvertPipe</text>
</g>
<!-- TimeStampConvertPipe&#45;&gt;CustomModule -->
<g id="edge6" class="edge">
<title>TimeStampConvertPipe&#45;&gt;CustomModule</title>
<path fill="none" stroke="black" d="M149.15,-122.11C149.15,-141.34 149.15,-169 149.15,-169 149.15,-169 379.16,-169 379.16,-169"/>
<polygon fill="black" stroke="black" points="379.16,-172.5 389.16,-169 379.16,-165.5 379.16,-172.5"/>
</g>
<!-- ChatBoxComponent  -->
<g id="node8" class="node">
<title>ChatBoxComponent </title>
<polygon fill="#fb8072" stroke="black" points="811.11,-252 676.89,-252 676.89,-216 811.11,-216 811.11,-252"/>
<text text-anchor="middle" x="744" y="-229.8" font-family="Times,serif" font-size="14.00">ChatBoxComponent </text>
</g>
<!-- CustomModule&#45;&gt;ChatBoxComponent  -->
<g id="edge7" class="edge">
<title>CustomModule&#45;&gt;ChatBoxComponent </title>
<path fill="none" stroke="black" stroke-dasharray="5,2" d="M492.67,-178C567.28,-178 696.34,-178 696.34,-178 696.34,-178 696.34,-205.97 696.34,-205.97"/>
<polygon fill="black" stroke="black" points="692.84,-205.97 696.34,-215.97 699.84,-205.97 692.84,-205.97"/>
</g>
<!-- ChatUserListComponent  -->
<g id="node9" class="node">
<title>ChatUserListComponent </title>
<polygon fill="#fb8072" stroke="black" points="658.98,-252 499.02,-252 499.02,-216 658.98,-216 658.98,-252"/>
<text text-anchor="middle" x="579" y="-229.8" font-family="Times,serif" font-size="14.00">ChatUserListComponent </text>
</g>
<!-- CustomModule&#45;&gt;ChatUserListComponent  -->
<g id="edge8" class="edge">
<title>CustomModule&#45;&gt;ChatUserListComponent </title>
<path fill="none" stroke="black" stroke-dasharray="5,2" d="M486.82,-187.11C486.82,-206.34 486.82,-234 486.82,-234 486.82,-234 489.25,-234 489.25,-234"/>
<polygon fill="black" stroke="black" points="489.25,-237.5 499.25,-234 489.25,-230.5 489.25,-237.5"/>
</g>
<!-- LogoutBtn  -->
<g id="node10" class="node">
<title>LogoutBtn </title>
<polygon fill="#fb8072" stroke="black" points="481.17,-252 400.83,-252 400.83,-216 481.17,-216 481.17,-252"/>
<text text-anchor="middle" x="441" y="-229.8" font-family="Times,serif" font-size="14.00">LogoutBtn </text>
</g>
<!-- CustomModule&#45;&gt;LogoutBtn  -->
<g id="edge9" class="edge">
<title>CustomModule&#45;&gt;LogoutBtn </title>
<path fill="none" stroke="black" stroke-dasharray="5,2" d="M441,-187.11C441,-187.11 441,-205.99 441,-205.99"/>
<polygon fill="black" stroke="black" points="437.5,-205.99 441,-215.99 444.5,-205.99 437.5,-205.99"/>
</g>
<!-- NavbarComponent  -->
<g id="node11" class="node">
<title>NavbarComponent </title>
<polygon fill="#fb8072" stroke="black" points="383.03,-252 256.97,-252 256.97,-216 383.03,-216 383.03,-252"/>
<text text-anchor="middle" x="320" y="-229.8" font-family="Times,serif" font-size="14.00">NavbarComponent </text>
</g>
<!-- CustomModule&#45;&gt;NavbarComponent  -->
<g id="edge10" class="edge">
<title>CustomModule&#45;&gt;NavbarComponent </title>
<path fill="none" stroke="black" stroke-dasharray="5,2" d="M395.18,-187.11C395.18,-206.34 395.18,-234 395.18,-234 395.18,-234 393.1,-234 393.1,-234"/>
<polygon fill="black" stroke="black" points="393.1,-230.5 383.1,-234 393.1,-237.5 393.1,-230.5"/>
</g>
<!-- TableComponent  -->
<g id="node12" class="node">
<title>TableComponent </title>
<polygon fill="#fb8072" stroke="black" points="239.21,-252 122.79,-252 122.79,-216 239.21,-216 239.21,-252"/>
<text text-anchor="middle" x="181" y="-229.8" font-family="Times,serif" font-size="14.00">TableComponent </text>
</g>
<!-- CustomModule&#45;&gt;TableComponent  -->
<g id="edge11" class="edge">
<title>CustomModule&#45;&gt;TableComponent </title>
<path fill="none" stroke="black" stroke-dasharray="5,2" d="M389.18,-178C322.85,-178 216.38,-178 216.38,-178 216.38,-178 216.38,-205.97 216.38,-205.97"/>
<polygon fill="black" stroke="black" points="212.88,-205.97 216.38,-215.97 219.88,-205.97 212.88,-205.97"/>
</g>
</g>
</svg>
